<svg width="58" height="67" viewBox="0 0 58 67" fill="none" xmlns="http://www.w3.org/2000/svg">
<path d="M10.0398 0.995213C5.73254 4.01126 4.59742 10.0079 7.61344 14.316L23.1238 36.4675L17.4831 44.5224C12.305 41.5232 5.6043 42.9339 2.10818 47.9275C-1.58299 53.2008 -0.30203 60.4663 4.9702 64.159C10.2427 67.8501 17.5097 66.5702 21.2024 61.2967C23.736 57.6782 23.9259 53.1202 22.0925 49.4242L29.0002 39.5584L35.9071 49.4233C34.0746 53.1193 34.2645 57.6771 36.7972 61.2958C40.4899 66.569 47.7562 67.8491 53.0285 64.1581C58.3016 60.4654 59.5826 53.1991 55.8914 47.9267C52.3953 42.9338 45.6946 41.5233 40.5165 44.5216L34.8758 36.4667L50.3852 14.3161C53.4022 10.008 52.2663 4.01137 47.9588 0.995332L29.0001 28.0744L10.0398 0.995213ZM17.7226 54.5864C17.7226 57.9231 15.0175 60.6282 11.6808 60.6282C8.3442 60.6282 5.63911 57.923 5.63911 54.5865C5.63911 51.249 8.34419 48.5447 11.6808 48.5447C15.0175 48.5447 17.7226 51.249 17.7226 54.5864ZM52.3618 54.5864C52.3618 57.9231 49.6567 60.6282 46.32 60.6282C42.9834 60.6282 40.2783 57.9231 40.2783 54.5864C40.2783 51.249 42.9834 48.5447 46.32 48.5447C49.6566 48.5447 52.3618 51.249 52.3618 54.5864Z" fill="#008FDD"/>
</svg>
