<svg width="163" height="103" viewBox="0 0 163 103" fill="none" xmlns="http://www.w3.org/2000/svg">
<path d="M77.72 82.28C77.72 81.5067 78 80.8 78.56 80.16C79.12 79.52 79.9067 79.2 80.92 79.2H85.28V82.68C84.5867 83.3733 83.84 83.92 83.04 84.32C82.24 84.72 81.4133 84.92 80.56 84.92C79.9733 84.92 79.4667 84.8 79.04 84.56C78.6133 84.2933 78.28 83.96 78.04 83.56C77.8267 83.16 77.72 82.7333 77.72 82.28ZM76.08 73.48C76.8267 73.16 77.6933 72.8667 78.68 72.6C79.6933 72.3067 80.7067 72.16 81.72 72.16C82.9733 72.16 83.8667 72.5333 84.4 73.28C84.9333 74 85.2133 74.9333 85.24 76.08V76.2H81C78.8667 76.2267 77.1333 76.76 75.8 77.8C74.4667 78.84 73.8 80.3333 73.8 82.28C73.8 84.12 74.36 85.6133 75.48 86.76C76.6 87.9067 78.32 88.48 80.64 88.48C81.6533 88.48 82.64 88.24 83.6 87.76C84.56 87.28 85.3867 86.7067 86.08 86.04L86.76 88H89.8V75.04C89.8 73.7333 89.4267 72.5467 88.68 71.48C87.96 70.4133 86.9867 69.5867 85.76 69C84.5333 68.3867 83.16 68.08 81.64 68.08C81.1067 68.08 80.4 68.16 79.52 68.32C78.64 68.4533 77.7733 68.6533 76.92 68.92C76.0667 69.16 75.3867 69.4533 74.88 69.8L76.08 73.48ZM98.7219 88V75.64C99.4152 75 100.162 74.4267 100.962 73.92C101.789 73.4133 102.602 73 103.402 72.68C104.229 72.36 104.962 72.2 105.602 72.2L104.642 68.6C103.949 68.6 103.189 68.7733 102.362 69.12C101.562 69.4667 100.789 69.8933 100.042 70.4C99.2952 70.88 98.6552 71.3467 98.1219 71.8L96.6419 68.6H94.2419V88H98.7219ZM111.064 88L113.144 85.08V59.76L108.704 60.2V88H111.064ZM111.544 74.68C112.424 73.7467 113.264 73.0533 114.064 72.6C114.891 72.1467 115.838 71.92 116.904 71.92C118.024 71.92 118.971 72.2 119.744 72.76C120.518 73.2933 121.091 74.04 121.464 75C121.864 75.96 122.064 77.08 122.064 78.36C122.064 79.5333 121.864 80.6 121.464 81.56C121.064 82.52 120.478 83.28 119.704 83.84C118.931 84.3733 117.984 84.64 116.864 84.64C115.851 84.64 114.918 84.44 114.064 84.04C113.238 83.6133 112.384 82.88 111.504 81.84L110.184 84.96C110.691 85.68 111.331 86.3067 112.104 86.84C112.904 87.3733 113.731 87.7867 114.584 88.08C115.464 88.3733 116.224 88.52 116.864 88.52C118.918 88.52 120.664 88.0933 122.104 87.24C123.571 86.3867 124.704 85.2 125.504 83.68C126.304 82.1333 126.704 80.3467 126.704 78.32C126.704 76.24 126.304 74.44 125.504 72.92C124.731 71.3733 123.611 70.1867 122.144 69.36C120.704 68.5067 118.984 68.08 116.984 68.08C116.264 68.08 115.491 68.2133 114.664 68.48C113.864 68.7467 113.078 69.1467 112.304 69.68C111.531 70.1867 110.851 70.8267 110.264 71.6L111.544 74.68ZM147.061 79.48V78.52C147.061 76.6267 146.755 74.8933 146.141 73.32C145.555 71.7467 144.621 70.48 143.341 69.52C142.061 68.56 140.421 68.08 138.421 68.08C136.448 68.08 134.741 68.5067 133.301 69.36C131.888 70.2133 130.795 71.4133 130.021 72.96C129.275 74.48 128.901 76.2667 128.901 78.32C128.901 80.3467 129.301 82.1333 130.101 83.68C130.901 85.2 132.115 86.3867 133.741 87.24C135.368 88.0667 137.368 88.48 139.741 88.48C140.755 88.48 141.688 88.3867 142.541 88.2C143.395 88.0133 144.181 87.7467 144.901 87.4C145.621 87.0267 146.288 86.64 146.901 86.24L145.541 82.96C144.581 83.4667 143.661 83.88 142.781 84.2C141.928 84.52 140.941 84.68 139.821 84.68C138.435 84.68 137.301 84.4667 136.421 84.04C135.568 83.5867 134.915 82.9733 134.461 82.2C134.035 81.4267 133.755 80.52 133.621 79.48H147.061ZM133.701 76.44C133.835 75.48 134.088 74.6667 134.461 74C134.861 73.3333 135.381 72.8267 136.021 72.48C136.688 72.1067 137.435 71.92 138.261 71.92C139.115 71.92 139.835 72.1067 140.421 72.48C141.035 72.8267 141.528 73.3333 141.901 74C142.301 74.6667 142.581 75.48 142.741 76.44H133.701ZM154.933 88V75.64C155.626 75 156.373 74.4267 157.173 73.92C157.999 73.4133 158.813 73 159.613 72.68C160.439 72.36 161.173 72.2 161.813 72.2L160.853 68.6C160.159 68.6 159.399 68.7733 158.573 69.12C157.773 69.4667 156.999 69.8933 156.253 70.4C155.506 70.88 154.866 71.3467 154.333 71.8L152.853 68.6H150.453V88H154.933Z" fill="#99BAED"/>
<g clip-path="url(#clip0_6_3)">
<path d="M50.5803 7.77596C44.6236 8.29712 40.0962 13.5572 40.6169 19.5147L43.2968 50.1484L33.162 54.8737C29.7678 48.9758 22.3668 46.5553 16.0846 49.4851C9.45122 52.5796 6.58174 60.4629 9.67428 67.0972C12.768 73.73 20.6523 76.6014 27.2873 73.5077C31.8398 71.3847 34.6184 67.004 34.9143 62.3217L47.3265 56.5334L48.5196 70.1756C44.6133 72.7735 42.209 77.3699 42.6457 82.3737C43.2841 89.6663 49.7121 95.0584 57.003 94.4213C64.2956 93.7829 69.6885 87.3554 69.0511 80.0644C68.447 73.1595 62.6501 67.9606 55.8458 67.9691L54.8707 56.8295L82.7388 43.8339C88.1593 41.3067 90.4502 34.7553 87.9231 29.336L53.8559 45.2239L50.5803 7.77596ZM27.6756 64.9209C25.7785 68.2068 21.5764 69.3327 18.2905 67.4356C15.0045 65.5385 13.8787 61.3363 15.7758 58.0505C17.6733 54.7638 21.8749 53.6386 25.1609 55.5357C28.4468 57.4329 29.5732 61.6342 27.6756 64.9209ZM61.7886 84.616C59.8914 87.9019 55.6894 89.0279 52.4034 87.1307C49.1175 85.2336 47.9916 81.0315 49.8887 77.7456C51.7863 74.4589 55.9879 73.3337 59.2738 75.2308C62.5597 77.1279 63.6861 81.3293 61.7886 84.616Z" fill="#99BAED"/>
</g>
<defs>
<clipPath id="clip0_6_3">
<rect width="74.2244" height="74.2244" fill="white" transform="translate(0 64.2803) rotate(-60)"/>
</clipPath>
</defs>
</svg>
